<?xml version="1.0" encoding="utf-8"?>
<!-- Generator: Adobe Illustrator 25.2.0, SVG Export Plug-In . SVG Version: 6.00 Build 0)  -->
<!DOCTYPE svg PUBLIC "-//W3C//DTD SVG 1.1//EN" "http://www.w3.org/Graphics/SVG/1.1/DTD/svg11.dtd" [
	<!ENTITY ns_extend "http://ns.adobe.com/Extensibility/1.0/">
	<!ENTITY ns_ai "http://ns.adobe.com/AdobeIllustrator/10.0/">
	<!ENTITY ns_graphs "http://ns.adobe.com/Graphs/1.0/">
	<!ENTITY ns_vars "http://ns.adobe.com/Variables/1.0/">
	<!ENTITY ns_imrep "http://ns.adobe.com/ImageReplacement/1.0/">
	<!ENTITY ns_sfw "http://ns.adobe.com/SaveForWeb/1.0/">
	<!ENTITY ns_custom "http://ns.adobe.com/GenericCustomNamespace/1.0/">
	<!ENTITY ns_adobe_xpath "http://ns.adobe.com/XPath/1.0/">
]>
<svg version="1.1" id="runflat" xmlns:x="&ns_extend;" xmlns:i="&ns_ai;" xmlns:graph="&ns_graphs;"
	 xmlns="http://www.w3.org/2000/svg" xmlns:xlink="http://www.w3.org/1999/xlink" x="0px" y="0px" viewBox="0 0 177.9 177.9"
	 style="enable-background:new 0 0 177.9 177.9;" xml:space="preserve">
<style type="text/css">
	.st0{fill:#231F20;}
	.st1{fill:#FFFFFF;}
</style>
<metadata>
	<sfw  xmlns="&ns_sfw;">
		<slices></slices>
		<sliceSourceBounds  bottomLeftOrigin="true" height="144" width="144" x="352.1" y="-355.3"></sliceSourceBounds>
	</sfw>
</metadata>
<g>
	<circle class="st0" cx="89" cy="89" r="72"/>
	<path class="st1" d="M127.6,90.6c0,11.6-4.9,22-12.1,29.5v2.4c0,1.3-1.1,2.4-2.4,2.4h-4.8c-1.3,0-2.4-1.1-2.4-2.4v-2.4H101v2.4
		c0,1.3-1.1,2.4-2.4,2.4h-4.8c-1.3,0-2.4-1.1-2.4-2.4v-2.4h-4.8v2.4c0,1.3-1.1,2.4-2.4,2.4h-4.8c-1.3,0-2.4-1.1-2.4-2.4v-2.4h-4.8
		v2.4c0,1.3-1.1,2.4-2.4,2.4h-4.8c-1.3,0-2.4-1.1-2.4-2.4v-2.4c-7.2-7.5-12.1-18-12.1-29.5c0-7.9,2.1-15.2,5.7-21.5
		c2.4-4.3,4-9.2,4-14.4v-4.4c0-1.4,1.1-2.6,2.4-2.6h4.8c1.3,0,2.4,1.1,2.4,2.4v7.2c0,4.8-2.3,11.3-5.3,16.5
		c-2.9,5-4.4,10.8-4.4,16.7c0,6.2,1.9,12.4,5.4,17.8c0.9,1.3,2.4,2.1,4,2.1h39.1c1.6,0,3.1-0.7,4-2.1c3.5-5.4,5.4-11.6,5.4-17.8
		c0-5.9-1.5-11.7-4.4-16.7c-3-5.2-5.3-11.7-5.3-16.5v-7.2c0-1.3,1.1-2.4,2.4-2.4h4.8c1.3,0,2.4,1.2,2.4,2.6v4.4
		c0,5.2,1.6,10.1,4,14.4C125.5,75.4,127.6,82.7,127.6,90.6z M85.1,84.2l-1.9-19.3c-0.1-1.4,1-2.7,2.4-2.7h6.7c1.4,0,2.5,1.2,2.4,2.7
		l-1.9,19.3c-0.1,1.2-1.2,2.2-2.4,2.2h-2.9C86.3,86.4,85.2,85.5,85.1,84.2z M93.8,96c0,2.7-2.2,4.8-4.8,4.8c-2.7,0-4.8-2.2-4.8-4.8
		s2.2-4.8,4.8-4.8C91.6,91.2,93.8,93.4,93.8,96z"/>
</g>
</svg>
